<svg width="180" height="64" viewBox="0 0 180 64" fill="none" xmlns="http://www.w3.org/2000/svg" role="img" aria-label="Apple">
  <rect width="180" height="64" rx="14" fill="#F5F5F7"/>
  <path d="M45 18C48 14 51 13 55 13C55 18 52 21 48 23C46 21 45 20 45 18Z" fill="#111111"/>
  <path d="M56 34C56 25 50 23 47 23C43 23 41 25 38 25C35 25 33 23 29 23C22 23 17 30 17 38C17 49 25 57 30 57C33 57 34 55 38 55C42 55 43 57 46 57C50 57 55 51 57 44C53 42 50 39 50 35C50 31 53 28 56 26C55 25 55 24 54 24C58 26 60 29 60 33C59 33 58 34 56 34Z" fill="#111111"/>
  <text x="78" y="40" fill="#111111" font-family="Arial, Helvetica, sans-serif" font-size="28" font-weight="700">Apple</text>
</svg>
