<svg width="236" height="56" viewBox="0 0 236 56" fill="none" xmlns="http://www.w3.org/2000/svg" role="img" aria-label="ArcVoucher">
  <g>
    <rect width="56" height="56" rx="14" fill="#06141F"/>
    <path d="M15 20.25C15 18.455 16.455 17 18.25 17H40V39.75C40 41.545 38.545 43 36.75 43H15V36.75C17.209 36.75 19 34.959 19 32.75C19 30.541 17.209 28.75 15 28.75V20.25Z" fill="url(#logoTicketGradient)"/>
    <path d="M27 18.5C37 18.5 44.75 24.17 44.75 31C44.75 37.83 37 43.5 27 43.5C22.426 43.5 18.29 42.33 15.125 40.393" stroke="#7DE3FF" stroke-width="2.6" stroke-linecap="round"/>
    <path d="M38.25 17.5C33.45 12.749 24.762 11.723 17.9 14.943" stroke="#34D399" stroke-width="2.6" stroke-linecap="round"/>
    <circle cx="30" cy="30" r="7" fill="#06141F" fill-opacity=".18" stroke="#FFFFFF" stroke-width="1.8"/>
    <path d="M30 24.75V35.25M25.7 27.85H32.4C33.781 27.85 34.9 28.969 34.9 30.35C34.9 31.731 33.781 32.85 32.4 32.85H25.7" stroke="#FFFFFF" stroke-width="2.2" stroke-linecap="round" stroke-linejoin="round"/>
  </g>
  <path d="M75.2 37L72.64 30.92H61.96L59.44 37H54.48L64.64 13.4H69.2L79.16 37H75.2ZM63.48 27.28H71.12L67.32 18.32L63.48 27.28ZM87.133 37H82.573V20.2H86.853L87.013 23.36C87.92 21.226 89.706 20.04 92.373 20.04H93.733V24.32H91.853C88.146 24.32 87.133 26.133 87.133 29.2V37ZM103.697 37.4C98.497 37.4 94.897 33.8 94.897 28.6C94.897 23.4 98.497 19.8 103.697 19.8C108.257 19.8 111.297 22.36 111.937 26.24H107.417C106.897 24.76 105.777 23.96 103.737 23.96C101.057 23.96 99.457 25.8 99.457 28.6C99.457 31.4 101.057 33.24 103.737 33.24C105.777 33.24 106.897 32.44 107.417 30.96H111.937C111.297 34.84 108.257 37.4 103.697 37.4ZM126.645 37H122.005L112.725 13.4H117.725L124.365 31.08L130.965 13.4H135.565L126.645 37ZM143.4 37.4C138.16 37.4 134.56 33.8 134.56 28.6C134.56 23.4 138.16 19.8 143.4 19.8C148.64 19.8 152.24 23.4 152.24 28.6C152.24 33.8 148.64 37.4 143.4 37.4ZM143.4 33.32C146.08 33.32 147.68 31.44 147.68 28.6C147.68 25.76 146.08 23.88 143.4 23.88C140.72 23.88 139.12 25.76 139.12 28.6C139.12 31.44 140.72 33.32 143.4 33.32ZM163.565 37.4C158.365 37.4 154.765 33.8 154.765 28.6C154.765 23.4 158.365 19.8 163.565 19.8C168.125 19.8 171.165 22.36 171.805 26.24H167.285C166.765 24.76 165.645 23.96 163.605 23.96C160.925 23.96 159.325 25.8 159.325 28.6C159.325 31.4 160.925 33.24 163.605 33.24C165.645 33.24 166.765 32.44 167.285 30.96H171.805C171.165 34.84 168.125 37.4 163.565 37.4ZM179.752 37H175.192V12.6H179.752V22.52C180.792 20.84 182.512 19.8 184.912 19.8C188.912 19.8 191.232 22.4 191.232 26.72V37H186.672V27.36C186.672 25.12 185.512 24 183.512 24C181.272 24 179.752 25.44 179.752 28.2V37ZM203.619 37.4C198.459 37.4 194.779 33.8 194.779 28.6C194.779 23.4 198.419 19.8 203.419 19.8C208.299 19.8 211.739 23.2 211.739 28.24C211.739 28.84 211.699 29.32 211.619 29.8H199.259C199.699 32.24 201.259 33.44 203.659 33.44C205.539 33.44 206.779 32.84 207.539 31.64H211.179C210.259 34.92 207.299 37.4 203.619 37.4ZM199.299 26.8H207.419C207.059 24.76 205.579 23.6 203.419 23.6C201.259 23.6 199.779 24.8 199.299 26.8ZM219.688 37H215.128V20.2H219.408L219.568 23.36C220.475 21.226 222.261 20.04 224.928 20.04H226.288V24.32H224.408C220.701 24.32 219.688 26.133 219.688 29.2V37Z" fill="#06141F"/>
  <defs>
    <linearGradient id="logoTicketGradient" x1="15" y1="17" x2="42.223" y2="40.81" gradientUnits="userSpaceOnUse">
      <stop stop-color="#34D399"/>
      <stop offset=".58" stop-color="#22D3EE"/>
      <stop offset="1" stop-color="#0EA5E9"/>
    </linearGradient>
  </defs>
</svg>
